<svg xmlns="http://www.w3.org/2000/svg" width="512" height="512" viewBox="0 0 192 192"><defs><linearGradient id="g" x1="0" y1="0" x2="1" y2="1"><stop offset="0" stop-color="#9b7cff"/><stop offset=".55" stop-color="#6d5dfc"/><stop offset="1" stop-color="#4f36d9"/></linearGradient><linearGradient id="h" x1="0" y1="0" x2="0" y2="1"><stop offset="0" stop-color="#24206f"/><stop offset="1" stop-color="#16134d"/></linearGradient></defs><rect width="192" height="192" rx="44" fill="#f8f7ff"/><path d="M77 45h18v38h21V45h18v102h-18v-45H95v45H77z" fill="url(#h)"/><path d="M48 61c0-15 12-27 27-27h41c7 0 12 5 12 12s-5 12-12 12H76c-4 0-7 3-7 7s3 7 7 7h17c30 0 52 18 52 43 0 27-22 45-52 45H62c-8 0-14-6-14-14s6-14 14-14h34c14 0 23-7 23-17 0-9-9-16-23-16H78c-18 0-30-5-39-13-8-7-12-16-12-25 0-7 3-14 8-20 4-5 9-8 13-10z" fill="url(#g)"/><path d="M120 33l22-9 22 9-22 9z" fill="#6d5dfc"/><path d="M130 40v8c0 5 5 9 12 9s12-4 12-9v-8" fill="#3023a6"/><path d="M161 35v15" stroke="#6d5dfc" stroke-width="3" stroke-linecap="round"/><circle cx="161" cy="51" r="3" fill="#6d5dfc"/></svg>